<svg width="16" height="16" viewBox="0 0 16 16" fill="none" xmlns="http://www.w3.org/2000/svg">
<path fill-rule="evenodd" clip-rule="evenodd" d="M11.8764 12.9799C12.0717 13.1752 12.3883 13.1752 12.5835 12.9799L12.9799 12.5835C13.1752 12.3883 13.1752 12.0717 12.9799 11.8764L9.45735 8.3539C9.26209 8.15864 9.26209 7.84206 9.45735 7.6468L12.9802 4.12397C13.1754 3.92871 13.1754 3.61213 12.9802 3.41687L12.5838 3.02051C12.3886 2.82525 12.072 2.82525 11.8767 3.02051L8.35389 6.54334C8.15863 6.7386 7.84205 6.7386 7.64679 6.54334L4.12368 3.02023C3.92842 2.82496 3.61183 2.82496 3.41657 3.02023L3.02022 3.41658C2.82496 3.61184 2.82496 3.92842 3.02022 4.12369L6.54333 7.6468C6.73859 7.84206 6.73859 8.15864 6.54333 8.3539L3.02051 11.8767C2.82524 12.072 2.82524 12.3886 3.02051 12.5838L3.41686 12.9802C3.61212 13.1754 3.9287 13.1754 4.12397 12.9802L7.64679 9.45736C7.84205 9.2621 8.15863 9.2621 8.35389 9.45736L11.8764 12.9799Z" fill="white"/>
</svg>
